<svg xmlns="http://www.w3.org/2000/svg" data-name="Layer 1" viewBox="0 0 451 361">
  <path fill="#3f3d56" d="M14 40a14 14 0 1 1 13-14 14 14 0 0 1-13 14Zm0-25a11 11 0 1 0 11 11 11 11 0 0 0-11-11Zm437 113h-23v-23h23zm-21-2h19v-19h-19ZM56 358l-16-16 17-16 15 17zm-13-16 13 14 14-13-13-14z"/>
  <circle cx="262.4" cy="202" r="158.8" fill="#ff7a59" opacity=".3"/>
  <path fill="#ff7a59" d="m248 313 104-123L197 0 92 128z"/>
  <path d="m248 313 104-123L197 0 92 128z" opacity=".1"/>
  <path fill="#f2f2f2" d="M96 130a53 53 0 0 1 8-12l97-98s34-6 41 11L118 132Z"/>
  <path fill="#ff7a59" d="m91 128 144 219s14 10 28 5l147-100L254 16 113 125Z"/>
  <path fill="#3f3d56" d="m146 114 90-65 1 2-90 65zm-3 26 2-1 118 180-1 1zm132 184 96-71 1 2-95 70zM251 54l2-1 122 177-1 1zm-147 67L215 18l1 1-111 102zm4 1L225 19v1L109 123zm3 0L232 21l1 1-121 101z"/>
</svg>
